<svg width="155" height="37" viewBox="0 0 155 37" fill="none" xmlns="http://www.w3.org/2000/svg">
<path d="M106.917 11.7261C107.817 8.86105 112.47 8.09515 115.305 10.119V10.119C116.507 10.9768 118.624 11.9592 119.787 11.0486C119.986 10.8925 120.188 10.7471 120.394 10.6124C121.854 9.64322 123.581 9.15861 125.573 9.15861C127.532 9.15861 129.225 9.65993 130.653 10.6626V10.6626C132.461 11.8621 135.613 11.9948 137.42 10.7935C139.059 9.70359 140.987 9.15861 143.202 9.15861C145.128 9.15861 146.805 9.67664 148.232 10.7127C149.693 11.7488 150.822 13.2527 151.619 15.2246C152.416 17.163 152.814 19.4523 152.814 22.0926V29.3715C152.814 32.2733 150.462 34.6256 147.56 34.6256V34.6256C144.658 34.6256 142.306 32.2733 142.306 29.3715V22.0926C142.306 20.3881 142.007 19.1014 141.41 18.2325C140.845 17.3635 140.048 16.929 139.019 16.929C137.89 16.929 136.911 17.4137 136.081 18.3829C135.284 19.3521 134.886 20.5218 134.886 21.8921V29.4214C134.886 32.2956 132.556 34.6256 129.681 34.6256V34.6256C126.807 34.6256 124.477 32.2956 124.477 29.4214V22.0926C124.477 20.3881 124.178 19.1014 123.581 18.2325C123.016 17.3635 122.203 16.929 121.141 16.929C120.012 16.929 119.049 17.4137 118.252 18.3829C117.455 19.3521 117.057 20.5218 117.057 21.8921V29.3019C117.057 32.2421 114.673 34.6256 111.733 34.6256V34.6256C108.848 34.6256 106.489 32.3329 106.446 29.448C106.354 23.3047 106.313 13.6489 106.917 11.7261Z" fill="#F7F4EF"/>
<path d="M61.8817 11.056C64.5976 11.6947 67.3682 11.2137 69.2535 12.7895C71.1065 14.3578 70.3618 15.6927 71.1211 17.8618C71.8405 20.0558 73.9647 22.9233 73.392 25.3968C72.8194 27.8704 69.014 28.48 67.3807 30.0864C65.7399 31.7253 66.4505 34.2489 64.1078 34.7962C61.7328 35.3359 59.5118 33.6639 56.7959 33.0253C54.0476 32.379 51.4226 32.8942 49.5696 31.326C47.6768 29.7827 48.6628 27.6752 47.9358 25.5138C47.2088 23.3523 44.8358 21.2899 45.4084 18.8163C45.9886 16.3102 49.0593 15.2118 50.7001 13.5728C52.3011 11.9588 52.3327 9.89156 54.7153 9.31931C57.058 8.77201 59.1335 10.4098 61.8817 11.056ZM60.4125 17.8618C59.0869 17.55 57.8625 18.0376 56.7959 18.8163C55.6893 19.62 55.0769 20.0171 54.7153 21.5793C54.3536 23.1416 54.4619 23.9052 55.1089 25.0869C55.7159 26.2936 56.0151 26.4528 57.3408 26.7645C58.6664 27.0762 60.7752 27.1488 61.8817 26.3451C62.9484 25.5664 63.7462 24.6666 64.1078 23.1044C64.4695 21.5421 63.5541 21.0703 62.947 19.8636C62.3001 18.6819 61.7381 18.1735 60.4125 17.8618Z" fill="#F7F4EF"/>
<path d="M78.3198 19.1155C79.0684 16.4078 78.7094 13.5975 80.3518 11.7662C81.9852 9.96703 83.2768 10.7736 85.4593 10.1013C87.6648 9.47023 90.5977 7.45325 93.0254 8.13507C95.4531 8.8169 95.8954 12.6747 97.4184 14.3877C98.9733 16.1096 101.505 15.5014 101.948 17.8837C102.382 20.2982 100.63 22.4635 99.8815 25.1712C99.1239 27.911 99.523 30.5763 97.8896 32.3754C96.2792 34.2158 94.2321 33.1333 92.0585 33.7734C89.885 34.4134 87.7395 36.7153 85.3119 36.0334C82.8522 35.3426 81.894 32.2039 80.3391 30.4819C78.8072 28.8012 76.7593 28.6814 76.2934 26.2579C75.8505 23.8756 77.5623 21.8553 78.3198 19.1155ZM84.2824 21.3886C83.917 22.7102 83.9489 23.7097 84.6985 24.8581C85.4481 26.0065 86.3807 26.4863 87.9139 26.9169C89.4472 27.3475 90.1953 26.8591 91.3942 26.2579C92.6161 25.698 93.2607 25.2646 93.6261 23.9431C93.9915 22.6215 94.3757 21.012 93.6261 19.8635C92.8995 18.7563 91.7548 17.5872 90.2215 17.1566C88.6882 16.7259 87.5471 17.3237 86.3251 17.8837C85.1262 18.4848 84.6478 20.067 84.2824 21.3886Z" fill="#F7F4EF"/>
<path d="M36.2327 34.992C33.4106 34.992 31.2194 34.1063 29.659 32.335C28.1317 30.5303 27.3681 28.0738 27.3681 24.9656V6.0882C27.3681 3.48338 29.2766 1.27182 31.8534 0.890728V0.890728C35.0267 0.421418 37.8761 2.88043 37.8761 6.0882V24.2137C37.8761 25.1495 38.0919 25.8346 38.5235 26.2691C38.9883 26.6701 39.7852 26.8706 40.914 26.8706V26.8706C42.1079 26.8706 43.4209 27.6102 43.4801 28.8026L43.5996 31.2081C43.6624 32.4736 42.9862 33.6881 41.7889 34.1025C40.0754 34.6955 38.2234 34.992 36.2327 34.992Z" fill="#F7F4EF"/>
<path fill-rule="evenodd" clip-rule="evenodd" d="M5.6224 34.8816C6.99246 34.9604 8.47884 34.9998 10.0815 34.9998C14.9931 34.9998 18.6121 33.7976 20.9386 31.3933C23.291 28.989 24.4671 25.8357 24.4671 21.9336C24.4671 18.6654 23.8588 16.199 22.642 14.5343C22.3045 14.0724 22.0674 13.2696 21.9534 12.4072H0V33.0289C0 33.7815 0.560555 34.4153 1.30382 34.4964C3.07372 34.6894 4.51325 34.8178 5.6224 34.8816ZM14.8121 24.535C14.0625 25.3233 12.9768 25.7175 11.555 25.7175C10.7984 25.7175 9.88054 25.6648 8.80135 25.5594C8.6731 25.5469 8.54719 25.5173 8.43068 25.4619C7.84027 25.1812 5.97881 24.1225 5.97881 21.9336C5.97881 19.3322 6.20097 18.1479 7.5425 16.9442C8.7354 15.8739 11.2861 16.1175 11.8366 16.1847C11.9086 16.1935 11.9792 16.1983 12.0517 16.1997C13.2913 16.2235 14.2502 16.6568 14.9284 17.4994C15.6264 18.3271 15.9754 19.5293 15.9754 21.1059C15.9754 22.5643 15.5876 23.7073 14.8121 24.535Z" fill="#F7F4EF"/>
<path fill-rule="evenodd" clip-rule="evenodd" d="M21.9565 12.4074H0V1.48148C0 0.663282 0.658905 0 1.47171 0H6.66933H13.3387C15.2257 0 16.9189 0.273228 18.4182 0.819685C19.9433 1.34012 21.1325 2.09475 21.9855 3.08358C22.8386 4.07241 23.2651 5.21737 23.2651 6.51846C23.2651 8.13181 22.9161 9.40688 22.2182 10.3437C21.9167 10.737 21.8389 11.6279 21.9565 12.4074ZM14.1917 9.87527C13.5455 10.3697 12.7182 10.6169 11.7101 10.6169H10.1186C9.30576 10.6169 8.64686 9.95361 8.64686 9.13541V6.67283C8.64686 5.85463 9.30576 5.19135 10.1186 5.19135H11.7876C14.0625 5.19135 15.1999 6.11512 15.1999 7.96267C15.1999 8.74332 14.8638 9.38086 14.1917 9.87527Z" fill="#F7F4EF"/>
<rect x="5.0882" y="15.3662" width="11.4869" height="11.1752" fill="#F7F4EF"/>
<path d="M11.7421 29.7147C10.0062 29.7147 8.39432 30.4006 7.03042 29.7147C5.68719 29.0288 5.95124 28.1143 5.18664 26.9088C4.44269 25.6825 2.75275 24.2484 2.75275 22.6687C2.75275 21.0891 4.97386 20.178 5.73846 18.9725C6.50307 17.7462 5.71819 16.319 7.06142 15.6539C8.42532 14.9888 10.0062 15.6851 11.7421 15.6851C13.4986 15.6851 15.0175 14.9992 16.3607 15.6851C17.7246 16.3502 17.4227 17.767 18.1666 18.9725C18.9106 20.178 20.6384 21.0891 20.6384 22.6687C20.6384 24.2691 18.9312 25.3717 18.1666 26.598C17.4227 27.8035 17.6936 29.06 16.3297 29.7459C14.9865 30.411 13.4986 29.7147 11.7421 29.7147ZM11.7421 26.9088C12.5893 26.9088 14.0065 26.2804 14.5437 25.6569C15.1017 25.0125 15.7434 23.9518 15.7434 22.9541C15.7434 21.9565 15.1017 20.6337 14.5437 20.0101C14.0065 19.3658 12.5893 18.491 11.7421 18.491C10.8948 18.491 9.55942 19.1004 9.00146 19.7447C8.46416 20.3682 7.46593 21.6711 7.46593 22.6687C7.46593 23.6664 8.46416 25.0125 9.00146 25.6569C9.55942 26.2804 10.8948 26.9088 11.7421 26.9088Z" fill="#1E1E1E"/>
</svg>
